<svg width="23" height="23" viewBox="0 0 23 23" fill="none" xmlns="http://www.w3.org/2000/svg">
<path d="M16.0294 0.130656C15.3557 -0.319297 14.5524 0.484009 15.0011 1.15767L15.8019 2.35881C16.1267 2.84583 16.3001 3.41814 16.3001 4.00355C16.3001 4.58897 16.1267 5.16127 15.8019 5.6483L15.0011 6.84944C14.5524 7.5231 15.357 8.3264 16.0307 7.87645L17.2306 7.07569C17.7176 6.75085 18.2899 6.5775 18.8753 6.5775C19.4607 6.5775 20.033 6.75085 20.52 7.07569L21.7212 7.87645C22.3948 8.3264 23.1981 7.5231 22.7482 6.84944L21.9474 5.6483C21.6226 5.16127 21.4492 4.58897 21.4492 4.00355C21.4492 3.41814 21.6226 2.84583 21.9474 2.35881L22.7482 1.15767C23.1981 0.484009 22.3948 -0.319297 21.7199 0.130656L20.52 0.931419C20.033 1.25626 19.4607 1.42961 18.8753 1.42961C18.2899 1.42961 17.7176 1.25626 17.2306 0.931419L16.0294 0.130656Z" fill="#161616"/>
<path d="M22.8256 15.6658C23.0849 15.0481 22.3438 14.5218 21.7223 14.7964C20.4799 15.3417 19.1375 15.6222 17.7808 15.62C12.4614 15.62 8.14999 11.3951 8.14999 6.18247C8.14804 4.4225 8.64805 2.69848 9.59136 1.21266C9.95234 0.643228 9.51891 -0.144825 8.85797 0.0229541C3.76232 1.32324 0 5.86344 0 11.2641C0 17.6791 5.30665 22.879 11.8538 22.879C16.8109 22.879 21.0563 19.8984 22.8256 15.6658Z" fill="#161616"/>
</svg>
