<svg width="106" height="106" viewBox="0 0 106 106" fill="none" xmlns="http://www.w3.org/2000/svg">
<path d="M33.3818 9.11373C33.7488 9.48072 34.3423 9.48062 34.7275 9.13271C43.068 1.59826 55.9433 1.84988 63.981 9.88755C72.2413 18.1479 72.2783 31.5176 64.0917 39.8236L65.428 41.1599C73.734 32.9734 87.1038 33.0103 95.3641 41.2707C103.402 49.3083 103.653 62.1836 96.1189 70.5242C95.771 70.9093 95.7709 71.5028 96.1379 71.8698C96.5085 72.2405 97.1124 72.2389 97.4651 71.8512C105.727 62.7712 105.472 48.7073 96.6995 39.9352C89.2767 32.5124 78.0649 31.1879 69.2899 35.9617C74.0637 27.1867 72.7393 15.9749 65.3164 8.5521C56.5443 -0.220037 42.4804 -0.475221 33.4004 7.78655C33.0127 8.13929 33.0112 8.74311 33.3818 9.11373Z" fill="black"/>
<path d="M33.3403 7.72021C42.4556 -0.57359 56.5741 -0.317435 65.3803 8.48877C72.7587 15.8674 74.1326 26.9742 69.5063 35.7436C78.2759 31.1169 89.3843 32.4928 96.7631 39.8716C105.569 48.6778 105.826 62.7963 97.5317 71.9116C97.1429 72.3389 96.4799 72.3384 96.0747 71.9331C95.6721 71.5305 95.6742 70.8831 96.0522 70.4643C103.555 62.1591 103.304 49.3381 95.3002 41.3345C87.0749 33.1091 73.7615 33.0722 65.4907 41.2241C65.4555 41.2585 65.3995 41.258 65.3647 41.2231L64.0278 39.8872C63.993 39.8523 63.9932 39.7954 64.0278 39.7602C72.1795 31.4894 72.1428 18.176 63.9174 9.95068C55.9138 1.94725 43.0927 1.69726 34.7876 9.1997C34.3688 9.57775 33.7204 9.57983 33.3178 9.17724C32.9128 8.77194 32.9131 8.10894 33.3403 7.72021ZM65.3164 8.5521C56.5443 -0.220037 42.4804 -0.475221 33.4004 7.78655L33.3325 7.85595C33.0143 8.2143 33.0344 8.76631 33.3818 9.11373C33.7488 9.48072 34.3423 9.48062 34.7275 9.13271C43.068 1.59826 55.9433 1.84988 63.981 9.88755C72.2413 18.1479 72.2783 31.5176 64.0917 39.8236L65.428 41.1599C73.734 32.9734 87.1038 33.0103 95.3641 41.2707C103.402 49.3083 103.653 62.1836 96.1189 70.5242C95.771 70.9093 95.7709 71.5028 96.1379 71.8698C96.4853 72.2173 97.0376 72.2376 97.396 71.9194L97.4651 71.8512C105.598 62.9131 105.478 49.1454 97.1049 40.3501L96.6995 39.9352C89.2767 32.5124 78.0649 31.1879 69.2899 35.9617C73.9891 27.3238 72.779 16.3247 65.6596 8.90283L65.3164 8.5521Z" fill="black"/>
<path d="M23.4334 84.1871C22.8404 84.7801 21.879 84.7799 21.2858 84.1871C20.6929 83.5943 20.6926 82.6334 21.2851 82.0402L102.831 0.444653C103.424 -0.148289 104.385 -0.148146 104.979 0.444653C105.572 1.03758 105.571 1.99902 104.979 2.59221L23.4334 84.1871Z" fill="black"/>
<path d="M2.08136 43.8625C1.30225 44.1732 0.419017 43.7935 0.108371 43.0144C-0.202179 42.2353 0.177452 41.352 0.956514 41.0414L102.523 0.544919C103.302 0.234387 104.185 0.614089 104.496 1.39306C104.806 2.17212 104.426 3.05535 103.647 3.36605L2.08136 43.8625Z" fill="black"/>
<path d="M61.6106 103.392C61.3 104.171 61.6797 105.054 62.4588 105.365C63.2379 105.675 64.1211 105.295 64.4318 104.516L104.928 2.95031C105.239 2.17128 104.859 1.288 104.08 0.977329C103.301 0.666701 102.418 1.04646 102.107 1.82547L61.6106 103.392Z" fill="black"/>
<path d="M34.4437 79.8269C34.7826 79.4879 35.3322 79.4879 35.6711 79.8269C36.0105 80.1663 36.01 80.7166 35.6701 81.0554L28.8089 87.8937C28.2668 88.434 27.3421 88.05 27.3421 87.2847C27.3421 87.0566 27.4327 86.8379 27.5939 86.6767L34.4437 79.8269ZM25.4778 70.1343C25.6472 70.3037 25.7611 70.5207 25.8044 70.7564L28.8487 87.3512C28.8999 87.6304 28.8107 87.9169 28.61 88.1176C28.2727 88.4548 27.726 88.4548 27.3887 88.1176L27.1405 87.8694C26.966 87.6949 26.8488 87.4714 26.8045 87.2286L23.7855 70.6874C23.7341 70.406 23.8242 70.1173 24.0265 69.915C24.3667 69.5748 24.9183 69.5748 25.2584 69.915L25.4778 70.1343ZM23.7941 70.0929C24.4317 69.4505 25.5106 70.0543 25.2964 70.9337C25.2577 71.0928 25.1759 71.2382 25.0601 71.3541L18.5637 77.8504C18.2217 78.1925 17.6671 78.1925 17.325 77.8504C16.9839 77.5093 16.9828 76.9566 17.3226 76.6141L23.7941 70.0929Z" fill="black"/>
</svg>
