<svg width="1841" height="192" viewBox="0 0 1841 192" fill="none" xmlns="http://www.w3.org/2000/svg">
<path d="M176.022 31.9343L140 61.8248C135.572 55.1825 128.929 50.4988 120.073 47.7737C111.216 44.8783 102.105 43.4306 92.7372 43.4306C79.1119 43.4306 72.2992 47.3479 72.2992 55.1825C72.2992 59.27 74.5133 62.3357 78.9416 64.3795C83.3698 66.253 91.7153 68.2116 103.978 70.2554C112.153 71.618 118.71 72.8953 123.65 74.0876C128.589 75.1094 134.805 77.0681 142.299 79.9635C149.963 82.6885 156.01 85.8394 160.438 89.416C164.866 92.9927 168.698 97.9318 171.934 104.234C175.341 110.535 177.044 117.774 177.044 125.949C177.044 137.19 174.744 147.153 170.146 155.839C165.547 164.355 159.246 171.168 151.241 176.277C143.406 181.387 134.55 185.219 124.671 187.774C114.963 190.328 104.574 191.606 93.5036 191.606C50.4136 191.606 19.2457 178.406 0 152.007L43.6861 123.905C47.6034 132.08 54.3309 138.126 63.8686 142.044C73.5766 145.791 83.6253 147.664 94.0145 147.664C112.068 147.664 121.095 143.066 121.095 133.869C121.095 128.929 118.285 125.438 112.664 123.394C107.044 121.35 95.2068 118.796 77.1532 115.73C35.7664 108.406 15.073 90.2676 15.073 61.3138C15.073 52.1168 16.7761 43.8564 20.1825 36.5328C23.5888 29.2092 27.9319 23.3333 33.2117 18.9051C38.4915 14.3066 44.708 10.5596 51.8613 7.66422C59.0146 4.76885 65.9975 2.81022 72.8102 1.78831C79.7931 0.596104 86.8613 0 94.0145 0C110.876 0 126.46 2.6399 140.766 7.91971C155.243 13.1995 166.995 21.2044 176.022 31.9343Z" fill="black"/>
<path d="M332.759 50.3284H287.029V186.241H230.059V50.3284H184.073V5.87591H332.759V50.3284Z" fill="black"/>
<path d="M519.637 5.87591L458.578 186.241H399.053L338.761 5.87591H397.009L429.199 116.496L461.133 5.87591H519.637Z" fill="black"/>
<path d="M530.88 5.87591H632.303C640.478 5.87591 648.142 6.81265 655.296 8.68612C662.449 10.3893 669.176 13.2847 675.478 17.3723C681.95 21.4598 687.06 27.5061 690.807 35.5109C694.553 43.3455 696.427 52.7129 696.427 63.6131C696.427 75.7056 693.532 85.8394 687.741 94.0145C681.95 102.019 672.498 108.491 659.383 113.431L703.58 186.241H639.712L604.712 122.628H588.106V186.241H530.88V5.87591ZM588.106 85.5839H611.865C616.974 85.5839 621.232 85.2433 624.639 84.562C628.215 83.8807 631.536 81.9221 634.602 78.6861C637.838 75.2798 639.456 70.5961 639.456 64.635C639.456 59.8661 638.605 56.034 636.901 53.1387C635.198 50.073 632.729 47.944 629.493 46.7518C626.257 45.3893 623.361 44.5377 620.807 44.197C618.252 43.8564 615.101 43.6861 611.354 43.6861H588.106V85.5839Z" fill="black"/>
<path d="M896.843 186.241H839.361V116.752H784.945V186.241H727.974V5.87591H784.945V71.5328H839.361V5.87591H896.843V186.241Z" fill="black"/>
<path d="M935.285 5.87591H992.512V120.073C992.512 137.956 1000.77 146.898 1017.29 146.898C1033.98 146.898 1042.33 137.445 1042.33 118.54V5.87591H1099.81V113.942C1099.81 138.808 1092.06 157.883 1076.56 171.168C1061.06 184.452 1041.14 191.095 1016.78 191.095C993.108 191.095 973.607 185.219 958.278 173.467C942.95 161.715 935.285 143.577 935.285 119.051V5.87591Z" fill="black"/>
<path d="M1312.36 186.241H1250.79L1191.27 82.7737V186.241H1138.13V5.87591H1198.68L1258.97 108.066V5.87591H1312.36V186.241Z" fill="black"/>
<path d="M1472.41 50.3284H1426.68V186.241H1369.71V50.3284H1323.73V5.87591H1472.41V50.3284Z" fill="black"/>
<path d="M1637.14 186.241H1486.66V5.87591H1629.47V45.4744H1543.89V72.2992H1623.85V111.387H1543.63V147.153H1637.14V186.241Z" fill="black"/>
<path d="M1668.04 5.87591H1769.46C1777.64 5.87591 1785.3 6.81265 1792.46 8.68612C1799.61 10.3893 1806.34 13.2847 1812.64 17.3723C1819.11 21.4598 1824.22 27.5061 1827.97 35.5109C1831.71 43.3455 1833.59 52.7129 1833.59 63.6131C1833.59 75.7056 1830.69 85.8394 1824.9 94.0145C1819.11 102.019 1809.66 108.491 1796.54 113.431L1840.74 186.241H1776.87L1741.87 122.628H1725.27V186.241H1668.04V5.87591ZM1725.27 85.5839H1749.02C1754.13 85.5839 1758.39 85.2433 1761.8 84.562C1765.38 83.8807 1768.7 81.9221 1771.76 78.6861C1775 75.2798 1776.62 70.5961 1776.62 64.635C1776.62 59.8661 1775.76 56.034 1774.06 53.1387C1772.36 50.073 1769.89 47.944 1766.65 46.7518C1763.42 45.3893 1760.52 44.5377 1757.97 44.197C1755.41 43.8564 1752.26 43.6861 1748.51 43.6861H1725.27V85.5839Z" fill="black"/>
</svg>
