<svg width="27" height="27" viewBox="0 0 27 27" fill="none" xmlns="http://www.w3.org/2000/svg">
<path d="M12.1855 3.48158V0.870395C12.1855 0.639552 12.2772 0.418163 12.4405 0.254933C12.6037 0.091702 12.8251 0 13.0559 0C13.2868 0 13.5082 0.091702 13.6714 0.254933C13.8346 0.418163 13.9263 0.639552 13.9263 0.870395V3.48158C13.9263 3.71242 13.8346 3.93381 13.6714 4.09704C13.5082 4.26027 13.2868 4.35197 13.0559 4.35197C12.8251 4.35197 12.6037 4.26027 12.4405 4.09704C12.2772 3.93381 12.1855 3.71242 12.1855 3.48158ZM13.0559 6.09276C11.6787 6.09276 10.3325 6.50114 9.1874 7.26627C8.04231 8.03139 7.14983 9.11888 6.6228 10.3912C6.09578 11.6636 5.95788 13.0636 6.22656 14.4144C6.49523 15.7651 7.15841 17.0058 8.13222 17.9796C9.10604 18.9534 10.3468 19.6166 11.6975 19.8853C13.0482 20.154 14.4483 20.0161 15.7206 19.489C16.993 18.962 18.0805 18.0695 18.8456 16.9244C19.6107 15.7794 20.0191 14.4331 20.0191 13.0559C20.0171 11.2098 19.2828 9.43986 17.9774 8.13445C16.672 6.82904 14.902 6.09478 13.0559 6.09276ZM5.47696 6.70857C5.64028 6.87189 5.86179 6.96364 6.09276 6.96364C6.32373 6.96364 6.54525 6.87189 6.70857 6.70857C6.87189 6.54525 6.96364 6.32373 6.96364 6.09276C6.96364 5.86179 6.87189 5.64028 6.70857 5.47696L4.96778 3.73617C4.80446 3.57285 4.58294 3.48109 4.35197 3.48109C4.121 3.48109 3.89949 3.57285 3.73617 3.73617C3.57285 3.89949 3.48109 4.121 3.48109 4.35197C3.48109 4.58294 3.57285 4.80446 3.73617 4.96778L5.47696 6.70857ZM5.47696 19.4033L3.73617 21.1441C3.57285 21.3074 3.48109 21.5289 3.48109 21.7599C3.48109 21.9908 3.57285 22.2123 3.73617 22.3757C3.89949 22.539 4.121 22.6307 4.35197 22.6307C4.58294 22.6307 4.80446 22.539 4.96778 22.3757L6.70857 20.6349C6.78944 20.554 6.85358 20.458 6.89735 20.3523C6.94112 20.2467 6.96364 20.1334 6.96364 20.0191C6.96364 19.9047 6.94112 19.7915 6.89735 19.6858C6.85358 19.5801 6.78944 19.4841 6.70857 19.4033C6.6277 19.3224 6.53169 19.2583 6.42603 19.2145C6.32037 19.1707 6.20713 19.1482 6.09276 19.1482C5.9784 19.1482 5.86515 19.1707 5.75949 19.2145C5.65383 19.2583 5.55783 19.3224 5.47696 19.4033ZM20.0191 6.96316C20.1334 6.96325 20.2466 6.94081 20.3523 6.89713C20.458 6.85344 20.554 6.78937 20.6349 6.70857L22.3757 4.96778C22.539 4.80446 22.6307 4.58294 22.6307 4.35197C22.6307 4.121 22.539 3.89949 22.3757 3.73617C22.2123 3.57285 21.9908 3.48109 21.7599 3.48109C21.5289 3.48109 21.3074 3.57285 21.1441 3.73617L19.4033 5.47696C19.2814 5.59869 19.1984 5.75384 19.1648 5.92277C19.1311 6.0917 19.1484 6.26681 19.2143 6.42594C19.2802 6.58507 19.3919 6.72106 19.5352 6.81669C19.6784 6.91232 19.8468 6.96329 20.0191 6.96316ZM20.6349 19.4033C20.4716 19.24 20.25 19.1482 20.0191 19.1482C19.7881 19.1482 19.5666 19.24 19.4033 19.4033C19.24 19.5666 19.1482 19.7881 19.1482 20.0191C19.1482 20.25 19.24 20.4716 19.4033 20.6349L21.1441 22.3757C21.2249 22.4565 21.3209 22.5207 21.4266 22.5645C21.5323 22.6082 21.6455 22.6307 21.7599 22.6307C21.8742 22.6307 21.9875 22.6082 22.0931 22.5645C22.1988 22.5207 22.2948 22.4565 22.3757 22.3757C22.4565 22.2948 22.5207 22.1988 22.5645 22.0931C22.6082 21.9875 22.6307 21.8742 22.6307 21.7599C22.6307 21.6455 22.6082 21.5323 22.5645 21.4266C22.5207 21.3209 22.4565 21.2249 22.3757 21.1441L20.6349 19.4033ZM4.35197 13.0559C4.35197 12.8251 4.26027 12.6037 4.09704 12.4405C3.93381 12.2772 3.71242 12.1855 3.48158 12.1855H0.870395C0.639552 12.1855 0.418163 12.2772 0.254933 12.4405C0.091702 12.6037 0 12.8251 0 13.0559C0 13.2868 0.091702 13.5082 0.254933 13.6714C0.418163 13.8346 0.639552 13.9263 0.870395 13.9263H3.48158C3.71242 13.9263 3.93381 13.8346 4.09704 13.6714C4.26027 13.5082 4.35197 13.2868 4.35197 13.0559ZM13.0559 21.7599C12.8251 21.7599 12.6037 21.8516 12.4405 22.0148C12.2772 22.178 12.1855 22.3994 12.1855 22.6303V25.2414C12.1855 25.4723 12.2772 25.6937 12.4405 25.8569C12.6037 26.0201 12.8251 26.1118 13.0559 26.1118C13.2868 26.1118 13.5082 26.0201 13.6714 25.8569C13.8346 25.6937 13.9263 25.4723 13.9263 25.2414V22.6303C13.9263 22.3994 13.8346 22.178 13.6714 22.0148C13.5082 21.8516 13.2868 21.7599 13.0559 21.7599ZM25.2414 12.1855H22.6303C22.3994 12.1855 22.178 12.2772 22.0148 12.4405C21.8516 12.6037 21.7599 12.8251 21.7599 13.0559C21.7599 13.2868 21.8516 13.5082 22.0148 13.6714C22.178 13.8346 22.3994 13.9263 22.6303 13.9263H25.2414C25.4723 13.9263 25.6937 13.8346 25.8569 13.6714C26.0201 13.5082 26.1118 13.2868 26.1118 13.0559C26.1118 12.8251 26.0201 12.6037 25.8569 12.4405C25.6937 12.2772 25.4723 12.1855 25.2414 12.1855Z" fill="white"/>
</svg>
