<svg width="37" height="37" viewBox="0 0 37 37" fill="none" xmlns="http://www.w3.org/2000/svg">
<circle cx="18.5" cy="18.5" r="18.5" fill="#383731"/>
<path d="M16.4752 17.9459C16.4752 17.9459 18.4625 17.7984 18.4625 15.468C18.4625 13.1374 16.8366 12 14.7771 12H8V25.0236H14.7771C14.7771 25.0236 18.9142 25.1543 18.9142 21.1797C18.9142 21.1797 19.0946 17.9459 16.4752 17.9459ZM14.2893 14.3148H14.7771C14.7771 14.3148 15.6983 14.3148 15.6983 15.6699C15.6983 17.0247 15.1565 17.2212 14.542 17.2212H10.9861V14.3148H14.2893ZM14.5856 22.7089H10.9861V19.2285H14.7771C14.7771 19.2285 16.1501 19.2105 16.1501 21.0171C16.1501 22.5404 15.1246 22.6974 14.5856 22.7089ZM24.4318 15.3136C19.4234 15.3136 19.4278 20.3177 19.4278 20.3177C19.4278 20.3177 19.0842 25.2961 24.4318 25.2961C24.4318 25.2961 28.8882 25.5507 28.8882 21.8329H26.5964C26.5964 21.8329 26.6728 23.2329 24.5083 23.2329C24.5083 23.2329 22.2161 23.3865 22.2161 20.9671H28.9646C28.9646 20.9671 29.703 15.3136 24.4318 15.3136ZM22.1909 19.2285C22.1909 19.2285 22.4707 17.2211 24.4828 17.2211C26.4944 17.2211 26.4692 19.2285 26.4692 19.2285H22.1909ZM27.003 14.371H21.6298V12.7673H27.003V14.371Z" fill="#FFFEFE"/>
</svg>
