<svg width="434" height="139" viewBox="0 0 434 139" fill="none" xmlns="http://www.w3.org/2000/svg">
<path d="M217 1C276.848 1 330.99 8.77103 370.137 21.3086C389.716 27.5792 405.488 35.025 416.344 43.2451C427.215 51.4774 433 60.3594 433 69.5C433 78.6406 427.215 87.5226 416.344 95.7549C405.488 103.975 389.716 111.421 370.137 117.691C330.99 130.229 276.848 138 217 138C157.152 138 103.01 130.229 63.8633 117.691C44.2845 111.421 28.512 103.975 17.6562 95.7549C6.78466 87.5226 1 78.6406 1 69.5C1 60.3594 6.78466 51.4774 17.6562 43.2451C28.512 35.025 44.2845 27.5792 63.8633 21.3086C103.01 8.77103 157.152 1 217 1Z" stroke="#383731" stroke-width="2"/>
</svg>
