<svg width="569" height="181" viewBox="0 0 569 181" fill="none" xmlns="http://www.w3.org/2000/svg">
<path d="M150.474 180.365H0V0H142.81V39.5985H57.2262V66.4233H137.19V105.511H56.9708V141.277H150.474V180.365Z" fill="#383731"/>
<path d="M355.61 180.365H294.041L234.515 76.8978V180.365H181.377V0H241.924L302.216 102.19V0H355.61V180.365Z" fill="#383731"/>
<path d="M394.688 180.365V0H473.118C487.084 0 499.432 1.36253 510.162 4.08758C520.892 6.64233 530.77 11.0706 539.797 17.3723C548.994 23.674 556.062 32.871 561.002 44.9635C565.941 57.0559 568.41 71.7883 568.41 89.1605C568.41 118.966 561.257 141.618 546.951 157.117C532.644 172.615 511.951 180.365 484.87 180.365H394.688ZM451.914 138.978H474.396C480.698 138.978 486.148 137.786 490.746 135.401C495.515 132.847 499.092 129.866 501.476 126.46C504.031 122.883 506.075 118.71 507.607 113.942C509.14 109.173 510.077 105 510.418 101.423C510.929 97.6763 511.184 93.9294 511.184 90.1824C511.184 86.0948 510.929 82.1776 510.418 78.4306C510.077 74.6837 509.14 70.5109 507.607 65.9124C506.075 61.3138 504.116 57.3966 501.732 54.1606C499.347 50.7542 495.941 47.944 491.513 45.7299C487.084 43.3455 481.89 42.1533 475.929 42.1533H451.914V138.978Z" fill="#383731"/>
</svg>
