<svg width="37" height="37" viewBox="0 0 37 37" fill="none" xmlns="http://www.w3.org/2000/svg">
<circle cx="18.5" cy="18.5" r="18.5" fill="#383731"/>
<path d="M15.0008 18.5C15.0008 16.5671 16.5674 14.9997 18.5004 14.9997C20.4334 14.9997 22.0008 16.5671 22.0008 18.5C22.0008 20.4329 20.4334 22.0003 18.5004 22.0003C16.5674 22.0003 15.0008 20.4329 15.0008 18.5ZM13.1086 18.5C13.1086 21.4778 15.5225 23.8916 18.5004 23.8916C21.4783 23.8916 23.8923 21.4778 23.8923 18.5C23.8923 15.5222 21.4783 13.1084 18.5004 13.1084C15.5225 13.1084 13.1086 15.5222 13.1086 18.5ZM22.8457 12.8946C22.8456 13.1438 22.9194 13.3874 23.0577 13.5947C23.1961 13.802 23.3928 13.9635 23.623 14.059C23.8533 14.1545 24.1066 14.1795 24.351 14.131C24.5955 14.0825 24.8201 13.9626 24.9963 13.7864C25.1726 13.6103 25.2927 13.3858 25.3415 13.1414C25.3902 12.897 25.3653 12.6437 25.27 12.4134C25.1748 12.1831 25.0133 11.9863 24.8062 11.8477C24.599 11.7092 24.3554 11.6352 24.1062 11.6351H24.1057C23.7717 11.6353 23.4513 11.768 23.2151 12.0041C22.9788 12.2403 22.846 12.5606 22.8457 12.8946ZM14.2583 27.0467C13.2345 27.0001 12.6781 26.8296 12.3083 26.6855C11.818 26.4947 11.4682 26.2674 11.1005 25.9001C10.7327 25.5329 10.5051 25.1835 10.315 24.6932C10.1709 24.3236 10.0004 23.7671 9.95383 22.7433C9.90293 21.6366 9.89276 21.3041 9.89276 18.5001C9.89276 15.6961 9.90377 15.3645 9.95383 14.2568C10.0005 13.2331 10.1722 12.6776 10.315 12.3069C10.5059 11.8167 10.7332 11.4669 11.1005 11.0992C11.4677 10.7314 11.8172 10.5038 12.3083 10.3138C12.6779 10.1696 13.2345 9.99912 14.2583 9.95258C15.3651 9.90168 15.6976 9.89151 18.5004 9.89151C21.3033 9.89151 21.6361 9.90252 22.7438 9.95258C23.7676 9.9992 24.3231 10.171 24.6938 10.3138C25.1841 10.5038 25.5339 10.7319 25.9016 11.0992C26.2694 11.4664 26.4962 11.8167 26.6871 12.3069C26.8312 12.6765 27.0017 13.2331 27.0483 14.2568C27.0992 15.3645 27.1093 15.6961 27.1093 18.5001C27.1093 21.3041 27.0992 21.6356 27.0483 22.7433C27.0016 23.7671 26.8303 24.3235 26.6871 24.6932C26.4962 25.1835 26.2689 25.5332 25.9016 25.9001C25.5344 26.2671 25.1841 26.4947 24.6938 26.6855C24.3242 26.8297 23.7676 27.0002 22.7438 27.0467C21.637 27.0977 21.3045 27.1078 18.5004 27.1078C15.6963 27.1078 15.3647 27.0977 14.2583 27.0467ZM14.1713 8.06359C13.0535 8.11449 12.2896 8.29173 11.6226 8.55129C10.9317 8.81934 10.3469 9.17894 9.76247 9.7624C9.17806 10.3459 8.81937 10.9316 8.55131 11.6224C8.29174 12.2899 8.1145 13.0533 8.06359 14.1711C8.01184 15.2906 8 15.6485 8 18.5C8 21.3515 8.01184 21.7094 8.06359 22.8289C8.1145 23.9468 8.29174 24.7101 8.55131 25.3776C8.81937 26.068 9.17815 26.6544 9.76247 27.2376C10.3468 27.8208 10.9317 28.1799 11.6226 28.4487C12.2909 28.7083 13.0535 28.8855 14.1713 28.9364C15.2915 28.9873 15.6488 29 18.5004 29C21.352 29 21.7099 28.9882 22.8295 28.9364C23.9474 28.8855 24.7108 28.7083 25.3783 28.4487C26.0687 28.1799 26.654 27.8211 27.2384 27.2376C27.8228 26.6541 28.1807 26.068 28.4495 25.3776C28.7091 24.7101 28.8872 23.9467 28.9372 22.8289C28.9882 21.7085 29 21.3515 29 18.5C29 15.6485 28.9882 15.2906 28.9372 14.1711C28.8863 13.0532 28.7091 12.2895 28.4495 11.6224C28.1807 10.932 27.8219 10.3468 27.2384 9.7624C26.6549 9.17802 26.0687 8.81934 25.3791 8.55129C24.7108 8.29173 23.9474 8.11365 22.8304 8.06359C21.7108 8.01268 21.3528 8 18.5013 8C15.6497 8 15.2915 8.01184 14.1713 8.06359Z" fill="#FFFEFE"/>
</svg>
