<svg width="37" height="37" viewBox="0 0 37 37" fill="none" xmlns="http://www.w3.org/2000/svg">
<circle cx="18.5" cy="18.5" r="18.5" fill="#383731"/>
<path d="M10 10.9747C10 10.4023 10.2027 9.93012 10.6081 9.55808C11.0135 9.18602 11.5405 9 12.1892 9C12.8263 9 13.3417 9.18315 13.7355 9.54949C14.1409 9.92727 14.3436 10.4195 14.3436 11.0263C14.3436 11.5758 14.1467 12.0337 13.7529 12.4C13.3475 12.7778 12.8147 12.9667 12.1544 12.9667H12.1371C11.5 12.9667 10.9846 12.7778 10.5907 12.4C10.1969 12.0222 10 11.5471 10 10.9747ZM10.2259 26V14.5293H14.083V26H10.2259ZM16.2201 26H20.0772V19.5949C20.0772 19.1943 20.1236 18.8852 20.2162 18.6677C20.3784 18.2784 20.6245 17.9493 20.9546 17.6803C21.2847 17.4113 21.6988 17.2768 22.1969 17.2768C23.4942 17.2768 24.1429 18.1411 24.1429 19.8697V26H28V19.4232C28 17.729 27.5946 16.4439 26.7838 15.5682C25.973 14.6924 24.9016 14.2545 23.5695 14.2545C22.0753 14.2545 20.9112 14.8899 20.0772 16.1606V16.1949H20.0598L20.0772 16.1606V14.5293H16.2201C16.2432 14.8956 16.2548 16.0347 16.2548 17.9465C16.2548 19.8582 16.2432 22.5427 16.2201 26Z" fill="#FFFEFE"/>
</svg>
