<svg width="576" height="192" viewBox="0 0 576 192" fill="none" xmlns="http://www.w3.org/2000/svg">
<path d="M174.233 186.241H112.664L53.1387 82.7737V186.241H0V5.87591H60.5474L120.839 108.066V5.87591H174.233V186.241Z" fill="#383731"/>
<path d="M401.085 186.241H336.961L297.107 114.197L270.282 143.577V186.241H213.311V5.87591H270.282V74.0876L326.997 5.87591H396.486L333.895 74.343L401.085 186.241Z" fill="#383731"/>
<path d="M574.729 31.9343L538.708 61.8248C534.279 55.1825 527.637 50.4988 518.781 47.7737C509.924 44.8783 500.812 43.4306 491.445 43.4306C477.819 43.4306 471.007 47.3479 471.007 55.1825C471.007 59.27 473.221 62.3357 477.649 64.3795C482.077 66.253 490.423 68.2116 502.686 70.2554C510.861 71.618 517.418 72.8953 522.357 74.0876C527.296 75.1094 533.513 77.0681 541.007 79.9635C548.671 82.6885 554.717 85.8394 559.145 89.416C563.574 92.9927 567.406 97.9318 570.642 104.234C574.048 110.535 575.751 117.774 575.751 125.949C575.751 137.19 573.452 147.153 568.853 155.839C564.255 164.355 557.953 171.168 549.948 176.277C542.114 181.387 533.257 185.219 523.379 187.774C513.671 190.328 503.282 191.606 492.211 191.606C449.121 191.606 417.953 178.406 398.708 152.007L442.394 123.905C446.311 132.08 453.038 138.126 462.576 142.044C472.284 145.791 482.333 147.664 492.722 147.664C510.776 147.664 519.802 143.066 519.802 133.869C519.802 128.929 516.992 125.438 511.372 123.394C505.751 121.35 493.914 118.796 475.861 115.73C434.474 108.406 413.781 90.2676 413.781 61.3138C413.781 52.1168 415.484 43.8564 418.89 36.5328C422.296 29.2092 426.639 23.3333 431.919 18.9051C437.199 14.3066 443.416 10.5596 450.569 7.66422C457.722 4.76885 464.705 2.81022 471.518 1.78831C478.501 0.596104 485.569 0 492.722 0C509.583 0 525.167 2.6399 539.474 7.91971C553.951 13.1995 565.703 21.2044 574.729 31.9343Z" fill="#383731"/>
</svg>
