<svg width="37" height="37" viewBox="0 0 37 37" fill="none" xmlns="http://www.w3.org/2000/svg">
<circle cx="18.5" cy="18.5" r="18.5" fill="#383731"/>
<path d="M7.28747 17.2745C7.28747 17.2745 16.5753 13.1037 19.7964 11.635C21.0313 11.0476 25.2188 9.16772 25.2188 9.16772C25.2188 9.16772 27.1516 8.34534 26.9905 10.3426C26.9367 11.1651 26.5073 14.0436 26.0778 17.1571C25.4335 21.563 24.7356 26.38 24.7356 26.38C24.7356 26.38 24.6282 27.7312 23.7156 27.9662C22.8029 28.2011 21.2996 27.1438 21.0313 26.9087C20.8165 26.7325 17.0047 24.089 15.6089 22.7966C15.2331 22.4441 14.8036 21.7392 15.6625 20.9168C17.5953 18.9782 19.9038 16.5696 21.2996 15.0423C21.9439 14.3373 22.5881 12.6925 19.9038 14.6898C16.0921 17.5683 12.334 20.2706 12.334 20.2706C12.334 20.2706 11.475 20.858 9.86443 20.3293C8.25378 19.8006 6.37474 19.0957 6.37474 19.0957C6.37474 19.0957 5.08634 18.2145 7.28747 17.2745Z" fill="#FFFEFE"/>
</svg>
