<svg width="270" height="45" viewBox="0 0 270 45" fill="none" xmlns="http://www.w3.org/2000/svg">
<path d="M34.92 11.82H24.18V43.74H10.8V11.82H0V1.38H34.92V11.82Z" fill="#383731"/>
<path d="M77.9264 43.74H64.4264V27.42H51.6464V43.74H38.2664V1.38H51.6464V16.8H64.4264V1.38H77.9264V43.74Z" fill="#383731"/>
<path d="M127.846 43.74H113.446L111.586 37.86H96.8264L94.9664 43.74H80.5664L96.7664 1.38H112.006L127.846 43.74ZM108.826 28.38L104.326 13.44L99.7064 28.38H108.826Z" fill="#383731"/>
<path d="M175.62 43.74H161.16L147.18 19.44V43.74H134.7V1.38H148.92L163.08 25.38V1.38H175.62V43.74Z" fill="#383731"/>
<path d="M228.898 43.74H213.838L204.478 26.82L198.178 33.72V43.74H184.798V1.38H198.178V17.4L211.498 1.38H227.818L213.118 17.46L228.898 43.74Z" fill="#383731"/>
<path d="M269.679 7.5L261.219 14.52C260.179 12.96 258.619 11.86 256.539 11.22C254.459 10.54 252.319 10.2 250.119 10.2C246.919 10.2 245.319 11.12 245.319 12.96C245.319 13.92 245.839 14.64 246.879 15.12C247.919 15.56 249.879 16.02 252.759 16.5C254.679 16.82 256.219 17.12 257.379 17.4C258.539 17.64 259.999 18.1 261.759 18.78C263.559 19.42 264.979 20.16 266.019 21C267.059 21.84 267.959 23 268.719 24.48C269.519 25.96 269.919 27.66 269.919 29.58C269.919 32.22 269.379 34.56 268.299 36.6C267.219 38.6 265.739 40.2 263.859 41.4C262.019 42.6 259.939 43.5 257.619 44.1C255.339 44.7 252.899 45 250.299 45C240.179 45 232.859 41.9 228.339 35.7L238.599 29.1C239.519 31.02 241.099 32.44 243.339 33.36C245.619 34.24 247.979 34.68 250.419 34.68C254.659 34.68 256.779 33.6 256.779 31.44C256.779 30.28 256.119 29.46 254.799 28.98C253.479 28.5 250.699 27.9 246.459 27.18C236.739 25.46 231.879 21.2 231.879 14.4C231.879 12.24 232.279 10.3 233.079 8.58C233.879 6.86 234.899 5.48 236.139 4.44C237.379 3.36 238.839 2.48 240.519 1.8C242.199 1.12 243.839 0.66 245.439 0.419998C247.079 0.139999 248.739 0 250.419 0C254.379 0 258.039 0.62 261.399 1.86C264.799 3.1 267.559 4.98 269.679 7.5Z" fill="#383731"/>
</svg>
